# xmcd
#
# Track frame offsets: 
#        150
#        16793
#        31843
#        56688
#        68336
#        87449
#        108167
#        123057
#        139418
#        161497
#        178735
#        201687
#        215583
#        228723
#        247181
#        257947
#
# Disc length: 3766 seconds
#
# Revision: 0
# Processed by: cddbd v1.5.1PL0 Copyright (c) Steve Scherf et al.
# Submitted via: ExactAudioCopy v0.95b3
#
DISCID=e70eb410
DTITLE=Tommy Alverson - Heroes and Friends
DYEAR=2004
DGENRE=Country
TTITLE0=Maybe In Mexico
TTITLE1=Anytime, Anywhere
TTITLE2=I Feel Like Drinkin' Today 
TTITLE3=Bordertown Girl
TTITLE4=I Can't Help Myself Darlin'
TTITLE5=Cheryl Doreen
TTITLE6=It Could Be Much Worse
TTITLE7=Invitation To The Blues
TTITLE8=My Hometown
TTITLE9=Deep Water 
TTITLE10=My Way Or The Highway
TTITLE11=Tear Joint
TTITLE12=I'm A Memory
TTITLE13=What'd I Come In Here For
TTITLE14=Just Someone I Used To Know
TTITLE15=Starlight Lounge Review 
EXTD=
EXTT0=
EXTT1=
EXTT2=
EXTT3=
EXTT4=
EXTT5=
EXTT6=
EXTT7=
EXTT8=
EXTT9=
EXTT10=
EXTT11=
EXTT12=
EXTT13=
EXTT14=
EXTT15=
PLAYORDER=
